<svg width="9" height="16" viewBox="0 0 9 16" fill="none" xmlns="http://www.w3.org/2000/svg">
<path d="M3.66477 15.4545V0.90909H4.40909V15.4545H3.66477ZM6.86364 5.27273C6.79924 4.625 6.51326 4.10985 6.00568 3.72727C5.49811 3.3447 4.85985 3.15341 4.09091 3.15341C3.54924 3.15341 3.07197 3.24621 2.65909 3.43182C2.25 3.61742 1.92803 3.875 1.69318 4.20455C1.46212 4.5303 1.34659 4.90152 1.34659 5.31818C1.34659 5.625 1.41288 5.89394 1.54545 6.125C1.67803 6.35606 1.85606 6.55492 2.07955 6.72159C2.30682 6.88447 2.55682 7.02462 2.82955 7.14205C3.10606 7.25947 3.38447 7.35795 3.66477 7.4375L4.89205 7.78977C5.26326 7.89205 5.63447 8.02273 6.00568 8.18182C6.37689 8.34091 6.71591 8.54167 7.02273 8.78409C7.33333 9.02273 7.58144 9.31629 7.76705 9.66477C7.95644 10.0095 8.05114 10.4242 8.05114 10.9091C8.05114 11.5303 7.89015 12.089 7.56818 12.5852C7.24621 13.0814 6.78409 13.4754 6.18182 13.767C5.57955 14.0549 4.85795 14.1989 4.01705 14.1989C3.22538 14.1989 2.53788 14.0682 1.95455 13.8068C1.37121 13.5417 0.912879 13.1761 0.579545 12.7102C0.246212 12.2443 0.0587122 11.7045 0.0170455 11.0909H1.10795C1.14583 11.5492 1.29735 11.9375 1.5625 12.2557C1.82765 12.5739 2.17235 12.8163 2.59659 12.983C3.02083 13.1458 3.49432 13.2273 4.01705 13.2273C4.59659 13.2273 5.11174 13.1307 5.5625 12.9375C6.01705 12.7405 6.37311 12.4678 6.63068 12.1193C6.89205 11.767 7.02273 11.358 7.02273 10.892C7.02273 10.4981 6.92046 10.1686 6.71591 9.90341C6.51136 9.63447 6.22538 9.40909 5.85795 9.22727C5.49432 9.04545 5.07197 8.88447 4.59091 8.74432L3.19886 8.33523C2.28598 8.0625 1.57765 7.68561 1.07386 7.20455C0.570076 6.72348 0.318182 6.10985 0.318182 5.36364C0.318182 4.73864 0.484849 4.18939 0.818182 3.71591C1.1553 3.23864 1.60985 2.86742 2.18182 2.60227C2.75758 2.33333 3.40341 2.19886 4.11932 2.19886C4.8428 2.19886 5.48295 2.33144 6.03977 2.59659C6.59659 2.86174 7.03788 3.22727 7.36364 3.69318C7.69318 4.1553 7.86932 4.68182 7.89205 5.27273H6.86364Z" fill="#1B3F57"/>
</svg>
