<svg width="109" height="43" viewBox="0 0 109 43" fill="none" xmlns="http://www.w3.org/2000/svg">
<path d="M14.1818 42.5568C11.3182 42.5568 8.87216 41.7348 6.84375 40.0909C4.8286 38.4337 3.27746 36.0407 2.19034 32.9119C1.11648 29.7831 0.579545 26.0246 0.579545 21.6364C0.579545 17.2614 1.11648 13.5161 2.19034 10.4006C3.27746 7.27178 4.83523 4.87879 6.86364 3.22159C8.9053 1.55113 11.3447 0.715908 14.1818 0.715908C17.0189 0.715908 19.4517 1.55113 21.4801 3.22159C23.5218 4.87879 25.0795 7.27178 26.1534 10.4006C27.2405 13.5161 27.7841 17.2614 27.7841 21.6364C27.7841 26.0246 27.2405 29.7831 26.1534 32.9119C25.0795 36.0407 23.5284 38.4337 21.5 40.0909C19.4848 41.7348 17.0455 42.5568 14.1818 42.5568ZM14.1818 39.2159C17.3239 39.2159 19.7765 37.6847 21.5398 34.6222C23.303 31.5464 24.1847 27.2178 24.1847 21.6364C24.1847 17.9242 23.7803 14.7557 22.9716 12.1307C22.1761 9.49242 21.0294 7.47727 19.5312 6.08523C18.0464 4.69318 16.2633 3.99716 14.1818 3.99716C11.0663 3.99716 8.62027 5.54829 6.84375 8.65057C5.06724 11.7396 4.17898 16.0682 4.17898 21.6364C4.17898 25.3485 4.5767 28.517 5.37216 31.142C6.18087 33.767 7.32765 35.7689 8.8125 37.1477C10.3106 38.5265 12.1004 39.2159 14.1818 39.2159ZM37.1456 42.2983C36.3634 42.2983 35.6873 42.0199 35.1172 41.4631C34.5604 40.893 34.282 40.2169 34.282 39.4347C34.282 38.6392 34.5604 37.9631 35.1172 37.4062C35.6873 36.8494 36.3634 36.571 37.1456 36.571C37.9411 36.571 38.6172 36.8494 39.174 37.4062C39.7308 37.9631 40.0092 38.6392 40.0092 39.4347C40.0092 39.9517 39.8767 40.429 39.6115 40.8665C39.3596 41.304 39.0149 41.6553 38.5774 41.9205C38.1532 42.1723 37.6759 42.2983 37.1456 42.2983ZM60.174 42.5568C57.3104 42.5568 54.8643 41.7348 52.8359 40.0909C50.8208 38.4337 49.2696 36.0407 48.1825 32.9119C47.1087 29.7831 46.5717 26.0246 46.5717 21.6364C46.5717 17.2614 47.1087 13.5161 48.1825 10.4006C49.2696 7.27178 50.8274 4.87879 52.8558 3.22159C54.8975 1.55113 57.3369 0.715908 60.174 0.715908C63.0111 0.715908 65.4439 1.55113 67.4723 3.22159C69.514 4.87879 71.0717 7.27178 72.1456 10.4006C73.2327 13.5161 73.7763 17.2614 73.7763 21.6364C73.7763 26.0246 73.2327 29.7831 72.1456 32.9119C71.0717 36.0407 69.5206 38.4337 67.4922 40.0909C65.477 41.7348 63.0376 42.5568 60.174 42.5568ZM60.174 39.2159C63.3161 39.2159 65.7687 37.6847 67.532 34.6222C69.2952 31.5464 70.1768 27.2178 70.1768 21.6364C70.1768 17.9242 69.7725 14.7557 68.9638 12.1307C68.1683 9.49242 67.0215 7.47727 65.5234 6.08523C64.0386 4.69318 62.2554 3.99716 60.174 3.99716C57.0585 3.99716 54.6125 5.54829 52.8359 8.65057C51.0594 11.7396 50.1712 16.0682 50.1712 21.6364C50.1712 25.3485 50.5689 28.517 51.3643 31.142C52.1731 33.767 53.3198 35.7689 54.8047 37.1477C56.3028 38.5265 58.0926 39.2159 60.174 39.2159ZM94.5178 42.5568C91.6541 42.5568 89.2081 41.7348 87.1797 40.0909C85.1645 38.4337 83.6134 36.0407 82.5263 32.9119C81.4524 29.7831 80.9155 26.0246 80.9155 21.6364C80.9155 17.2614 81.4524 13.5161 82.5263 10.4006C83.6134 7.27178 85.1712 4.87879 87.1996 3.22159C89.2412 1.55113 91.6806 0.715908 94.5178 0.715908C97.3549 0.715908 99.7876 1.55113 101.816 3.22159C103.858 4.87879 105.415 7.27178 106.489 10.4006C107.576 13.5161 108.12 17.2614 108.12 21.6364C108.12 26.0246 107.576 29.7831 106.489 32.9119C105.415 36.0407 103.864 38.4337 101.836 40.0909C99.8208 41.7348 97.3814 42.5568 94.5178 42.5568ZM94.5178 39.2159C97.6598 39.2159 100.112 37.6847 101.876 34.6222C103.639 31.5464 104.521 27.2178 104.521 21.6364C104.521 17.9242 104.116 14.7557 103.308 12.1307C102.512 9.49242 101.365 7.47727 99.8672 6.08523C98.3823 4.69318 96.5992 3.99716 94.5178 3.99716C91.4022 3.99716 88.9562 5.54829 87.1797 8.65057C85.4032 11.7396 84.5149 16.0682 84.5149 21.6364C84.5149 25.3485 84.9126 28.517 85.7081 31.142C86.5168 33.767 87.6636 35.7689 89.1484 37.1477C90.6465 38.5265 92.4363 39.2159 94.5178 39.2159Z" fill="#1B3F57"/>
</svg>
