<svg width="17" height="20" viewBox="0 0 17 20" fill="none" xmlns="http://www.w3.org/2000/svg">
<path d="M14.0394 19.1976C12.9507 20.253 11.7619 20.0864 10.6176 19.5864C9.40668 19.0754 8.29571 19.0532 7.01809 19.5864C5.41829 20.2752 4.57395 20.0752 3.61852 19.1976C-1.80302 13.6094 -1.00312 5.09936 5.15166 4.78828C6.65147 4.86605 7.69578 5.6104 8.57345 5.67706C9.88439 5.41043 11.1398 4.64386 12.5396 4.74385C14.2172 4.87716 15.4837 5.54374 16.3169 6.74359C12.8507 8.82111 13.6728 13.3872 16.8502 14.6648C16.2169 16.3313 15.3948 17.9866 14.0283 19.2087L14.0394 19.1976ZM8.46235 4.72163C8.29571 2.24416 10.3066 0.199975 12.6174 0C12.9396 2.8663 10.0177 4.99937 8.46235 4.72163Z" fill="black"/>
</svg>
