<svg width="12" height="7" viewBox="0 0 12 7" fill="none" xmlns="http://www.w3.org/2000/svg">
<path d="M1.26508 6.26501C1.23075 6.30185 1.18935 6.3314 1.14335 6.3519C1.09735 6.37239 1.04769 6.38341 0.997337 6.3843C0.946986 6.38519 0.896971 6.37593 0.850278 6.35707C0.803584 6.33821 0.761166 6.31013 0.725557 6.27452C0.689948 6.23891 0.661875 6.1965 0.643015 6.1498C0.624154 6.10311 0.614892 6.0531 0.615781 6.00274C0.616669 5.95239 0.627689 5.90274 0.648186 5.85674C0.668682 5.81074 0.698232 5.76934 0.735076 5.735L5.73508 0.735006C5.80539 0.66478 5.9007 0.625335 6.00008 0.625335C6.09945 0.625335 6.19476 0.66478 6.26508 0.735006L11.2651 5.73501C11.3313 5.80609 11.3674 5.90012 11.3657 5.99727C11.3639 6.09442 11.3246 6.18711 11.2559 6.25582C11.1872 6.32452 11.0945 6.36388 10.9973 6.36559C10.9002 6.36731 10.8062 6.33125 10.7351 6.26501L6.00008 1.53063L1.26508 6.26501Z" fill="#1B3F57"/>
</svg>
