<svg width="14" height="14" viewBox="0 0 14 14" fill="none" xmlns="http://www.w3.org/2000/svg">
<path d="M11.1432 5.01814C11.1733 4.9859 11.2095 4.96004 11.2498 4.94211C11.29 4.92418 11.3335 4.91453 11.3775 4.91376C11.4216 4.91298 11.4653 4.92108 11.5062 4.93759C11.547 4.95409 11.5842 4.97865 11.6153 5.00981C11.6465 5.04097 11.671 5.07808 11.6875 5.11894C11.704 5.1598 11.7122 5.20356 11.7114 5.24762C11.7106 5.29167 11.701 5.33513 11.683 5.37537C11.6651 5.41562 11.6392 5.45185 11.607 5.48189L7.23199 9.85689C7.17047 9.91834 7.08707 9.95285 7.00012 9.95285C6.91316 9.95285 6.82976 9.91834 6.76824 9.85689L2.39324 5.48189C2.33528 5.41969 2.30373 5.33742 2.30523 5.25241C2.30673 5.1674 2.34116 5.0863 2.40128 5.02618C2.4614 4.96606 2.54251 4.93163 2.62751 4.93013C2.71252 4.92863 2.79479 4.96018 2.85699 5.01814L7.00012 9.16072L11.1432 5.01814Z" fill="white"/>
</svg>
