<svg width="28" height="28" viewBox="0 0 28 28" fill="none" xmlns="http://www.w3.org/2000/svg">
<path d="M14.16 8.878V19H12.27V14.576H7.517V19H5.627V8.878H7.517V13.232H12.27V8.878H14.16ZM16.0431 11.699C16.1131 11.2137 16.2484 10.789 16.4491 10.425C16.6498 10.0563 16.8994 9.75067 17.1981 9.508C17.5014 9.26067 17.8468 9.07633 18.2341 8.955C18.6261 8.829 19.0461 8.766 19.4941 8.766C19.9608 8.766 20.3808 8.83367 20.7541 8.969C21.1321 9.09967 21.4541 9.284 21.7201 9.522C21.9861 9.75533 22.1891 10.0307 22.3291 10.348C22.4738 10.6653 22.5461 11.0083 22.5461 11.377C22.5461 11.699 22.5088 11.9837 22.4341 12.231C22.3641 12.4737 22.2614 12.686 22.1261 12.868C21.9908 13.05 21.8228 13.204 21.6221 13.33C21.4214 13.456 21.1951 13.561 20.9431 13.645C21.5498 13.8363 22.0024 14.128 22.3011 14.52C22.5998 14.912 22.7491 15.4043 22.7491 15.997C22.7491 16.501 22.6558 16.9467 22.4691 17.334C22.2824 17.7213 22.0304 18.048 21.7131 18.314C21.3958 18.5753 21.0271 18.7737 20.6071 18.909C20.1918 19.0443 19.7508 19.112 19.2841 19.112C18.7754 19.112 18.3321 19.0537 17.9541 18.937C17.5761 18.8203 17.2471 18.6477 16.9671 18.419C16.6871 18.1903 16.4491 17.9103 16.2531 17.579C16.0571 17.2477 15.8891 16.865 15.7491 16.431L16.5121 16.116C16.7128 16.032 16.8994 16.011 17.0721 16.053C17.2494 16.0903 17.3778 16.1837 17.4571 16.333C17.5411 16.4963 17.6321 16.6573 17.7301 16.816C17.8328 16.9747 17.9541 17.117 18.0941 17.243C18.2341 17.3643 18.3974 17.4647 18.5841 17.544C18.7754 17.6187 19.0018 17.656 19.2631 17.656C19.5571 17.656 19.8138 17.6093 20.0331 17.516C20.2524 17.418 20.4344 17.292 20.5791 17.138C20.7284 16.984 20.8381 16.8137 20.9081 16.627C20.9828 16.4357 21.0201 16.2443 21.0201 16.053C21.0201 15.8103 20.9944 15.591 20.9431 15.395C20.8918 15.1943 20.7844 15.024 20.6211 14.884C20.4578 14.744 20.2221 14.6343 19.9141 14.555C19.6108 14.4757 19.2024 14.436 18.6891 14.436V13.204C19.1138 13.1993 19.4661 13.1597 19.7461 13.085C20.0261 13.0103 20.2478 12.9077 20.4111 12.777C20.5791 12.6417 20.6958 12.4807 20.7611 12.294C20.8264 12.1073 20.8591 11.902 20.8591 11.678C20.8591 11.202 20.7261 10.8403 20.4601 10.593C20.1941 10.3457 19.8394 10.222 19.3961 10.222C19.1908 10.222 19.0018 10.2523 18.8291 10.313C18.6564 10.369 18.5001 10.4507 18.3601 10.558C18.2248 10.6607 18.1104 10.782 18.0171 10.922C17.9238 11.062 17.8538 11.216 17.8071 11.384C17.7278 11.5987 17.6228 11.741 17.4921 11.811C17.3661 11.881 17.1864 11.8973 16.9531 11.86L16.0431 11.699Z" fill="#1B3F57" fill-opacity="0.5"/>
</svg>
