<svg width="28" height="28" viewBox="0 0 28 28" fill="none" xmlns="http://www.w3.org/2000/svg">
<path d="M14.16 8.878V19H12.27V14.576H7.517V19H5.627V8.878H7.517V13.232H12.27V8.878H14.16ZM20.2711 15.185V11.874C20.2711 11.5613 20.2921 11.216 20.3341 10.838L17.1911 15.185H20.2711ZM23.0501 15.185V16.186C23.0501 16.2793 23.0198 16.361 22.9591 16.431C22.8984 16.4963 22.8121 16.529 22.7001 16.529H21.7761V19H20.2711V16.529H16.0011C15.8844 16.529 15.7818 16.494 15.6931 16.424C15.6044 16.3493 15.5484 16.2583 15.5251 16.151L15.3431 15.276L20.1381 8.871H21.7761V15.185H23.0501Z" fill="#1B3F57" fill-opacity="0.5"/>
</svg>
