<svg width="20" height="20" viewBox="0 0 20 20" fill="none" xmlns="http://www.w3.org/2000/svg">
<path d="M12.8313 15.9187C12.8774 15.9617 12.9143 16.0134 12.9399 16.0709C12.9656 16.1284 12.9793 16.1905 12.9804 16.2534C12.9816 16.3164 12.97 16.3789 12.9464 16.4372C12.9228 16.4956 12.8877 16.5486 12.8432 16.5931C12.7987 16.6377 12.7457 16.6727 12.6873 16.6963C12.629 16.7199 12.5664 16.7315 12.5035 16.7304C12.4406 16.7293 12.3785 16.7155 12.321 16.6899C12.2635 16.6642 12.2117 16.6273 12.1688 16.5812L5.91883 10.3312C5.83104 10.2434 5.78174 10.1242 5.78174 10C5.78174 9.87578 5.83104 9.75664 5.91883 9.66875L12.1688 3.41875C12.2577 3.33595 12.3752 3.29087 12.4967 3.29301C12.6181 3.29515 12.734 3.34435 12.8198 3.43023C12.9057 3.51612 12.9549 3.63198 12.9571 3.75342C12.9592 3.87486 12.9141 3.99239 12.8313 4.08125L6.91336 10L12.8313 15.9187Z" fill="#1B3F57" fill-opacity="0.8"/>
</svg>
