<svg width="20" height="20" viewBox="0 0 20 20" fill="none" xmlns="http://www.w3.org/2000/svg">
<path d="M16.875 2.5V15C16.875 15.1658 16.8092 15.3247 16.6919 15.4419C16.5747 15.5592 16.4158 15.625 16.25 15.625H5.625C5.29348 15.625 4.97554 15.7567 4.74112 15.9911C4.5067 16.2255 4.375 16.5435 4.375 16.875H15C15.1658 16.875 15.3247 16.9408 15.4419 17.0581C15.5592 17.1753 15.625 17.3342 15.625 17.5C15.625 17.6658 15.5592 17.8247 15.4419 17.9419C15.3247 18.0592 15.1658 18.125 15 18.125H3.75C3.58424 18.125 3.42527 18.0592 3.30806 17.9419C3.19085 17.8247 3.125 17.6658 3.125 17.5V4.375C3.125 3.71196 3.38839 3.07607 3.85723 2.60723C4.32607 2.13839 4.96196 1.875 5.625 1.875H16.25C16.4158 1.875 16.5747 1.94085 16.6919 2.05806C16.8092 2.17527 16.875 2.33424 16.875 2.5Z" fill="#4C8282"/>
<path d="M9.93484 12.0739C9.48313 12.0739 9.08043 11.9908 8.72674 11.8246C8.37518 11.6584 8.09606 11.4293 7.88938 11.1374C7.68271 10.8455 7.57511 10.511 7.56658 10.1339H8.90891C8.92383 10.3874 9.03036 10.593 9.22852 10.7507C9.42667 10.9084 9.66211 10.9872 9.93484 10.9872C10.1522 10.9872 10.3439 10.9393 10.5101 10.8434C10.6784 10.7454 10.8095 10.6101 10.9032 10.4375C10.9991 10.2628 11.0471 10.0625 11.0471 9.83665C11.0471 9.60653 10.998 9.40412 10.9 9.2294C10.8042 9.05469 10.671 8.91832 10.5005 8.82031C10.3301 8.7223 10.1351 8.67223 9.91566 8.6701C9.7239 8.6701 9.53746 8.70952 9.35636 8.78835C9.17738 8.86719 9.03782 8.97479 8.93768 9.11115L7.70721 8.89062L8.01722 5.43892H12.0186V6.57031H9.1582L8.98881 8.20987H9.02717C9.14222 8.04794 9.31587 7.91371 9.54812 7.80717C9.78036 7.70064 10.0403 7.64737 10.3279 7.64737C10.7221 7.64737 11.0737 7.74006 11.3826 7.92543C11.6916 8.1108 11.9355 8.36541 12.1145 8.68928C12.2935 9.01101 12.3819 9.38175 12.3798 9.80149C12.3819 10.2425 12.2797 10.6346 12.073 10.9776C11.8684 11.3185 11.5819 11.587 11.2132 11.783C10.8468 11.9769 10.4206 12.0739 9.93484 12.0739Z" fill="white"/>
</svg>
