<svg width="20" height="20" viewBox="0 0 20 20" fill="none" xmlns="http://www.w3.org/2000/svg">
<path d="M16.875 2.5V15C16.875 15.1658 16.8092 15.3247 16.6919 15.4419C16.5747 15.5592 16.4158 15.625 16.25 15.625H5.625C5.29348 15.625 4.97554 15.7567 4.74112 15.9911C4.5067 16.2255 4.375 16.5435 4.375 16.875H15C15.1658 16.875 15.3247 16.9408 15.4419 17.0581C15.5592 17.1753 15.625 17.3342 15.625 17.5C15.625 17.6658 15.5592 17.8247 15.4419 17.9419C15.3247 18.0592 15.1658 18.125 15 18.125H3.75C3.58424 18.125 3.42527 18.0592 3.30806 17.9419C3.19085 17.8247 3.125 17.6658 3.125 17.5V4.375C3.125 3.71196 3.38839 3.07607 3.85723 2.60723C4.32607 2.13839 4.96196 1.875 5.625 1.875H16.25C16.4158 1.875 16.5747 1.94085 16.6919 2.05806C16.8092 2.17527 16.875 2.33424 16.875 2.5Z" fill="#4C8282"/>
<path d="M9.91127 12.0739C9.41908 12.0739 8.98122 11.994 8.5977 11.8342C8.21631 11.6722 7.91695 11.4517 7.69962 11.1726C7.48229 10.8935 7.37362 10.5771 7.37362 10.2234C7.37362 9.95064 7.43541 9.70028 7.55899 9.4723C7.6847 9.24219 7.85516 9.05149 8.07036 8.90021C8.28556 8.7468 8.52632 8.64879 8.79266 8.60618V8.56143C8.44323 8.49112 8.15985 8.32173 7.94252 8.05327C7.72519 7.78267 7.61652 7.46839 7.61652 7.11044C7.61652 6.77166 7.7156 6.47017 7.91375 6.20597C8.11191 5.93963 8.38357 5.73082 8.72874 5.57955C9.07604 5.42614 9.47021 5.34943 9.91127 5.34943C10.3523 5.34943 10.7454 5.42614 11.0906 5.57955C11.4379 5.73295 11.7106 5.94283 11.9088 6.20916C12.1069 6.47337 12.2071 6.77379 12.2092 7.11044C12.2071 7.47053 12.0963 7.7848 11.8768 8.05327C11.6574 8.32173 11.3761 8.49112 11.0331 8.56143V8.60618C11.2951 8.64879 11.5327 8.7468 11.7458 8.90021C11.961 9.05149 12.1314 9.24219 12.2571 9.4723C12.385 9.70028 12.45 9.95064 12.4521 10.2234C12.45 10.5771 12.3402 10.8935 12.1229 11.1726C11.9056 11.4517 11.6052 11.6722 11.2216 11.8342C10.8402 11.994 10.4035 12.0739 9.91127 12.0739ZM9.91127 11.0575C10.1307 11.0575 10.3225 11.0181 10.4866 10.9393C10.6506 10.8583 10.7785 10.7475 10.8701 10.6069C10.9638 10.4641 11.0107 10.3001 11.0107 10.1147C11.0107 9.92507 10.9628 9.75781 10.8669 9.61293C10.771 9.46591 10.641 9.35085 10.477 9.26776C10.3129 9.18253 10.1243 9.13991 9.91127 9.13991C9.70033 9.13991 9.51176 9.18253 9.34557 9.26776C9.17938 9.35085 9.04834 9.46591 8.95246 9.61293C8.85871 9.75781 8.81183 9.92507 8.81183 10.1147C8.81183 10.3001 8.85764 10.4641 8.94926 10.6069C9.04088 10.7475 9.16979 10.8583 9.33598 10.9393C9.50218 11.0181 9.69394 11.0575 9.91127 11.0575ZM9.91127 8.13317C10.0945 8.13317 10.2575 8.09588 10.4003 8.02131C10.543 7.94673 10.6549 7.84339 10.7358 7.71129C10.8168 7.57919 10.8573 7.42685 10.8573 7.25426C10.8573 7.08381 10.8168 6.93466 10.7358 6.80682C10.6549 6.67685 10.5441 6.57564 10.4035 6.5032C10.2628 6.42862 10.0988 6.39134 9.91127 6.39134C9.7259 6.39134 9.56183 6.42862 9.41908 6.5032C9.27632 6.57564 9.16446 6.67685 9.0835 6.80682C9.00466 6.93466 8.96524 7.08381 8.96524 7.25426C8.96524 7.42685 9.00573 7.57919 9.08669 7.71129C9.16766 7.84339 9.27952 7.94673 9.42227 8.02131C9.56503 8.09588 9.72803 8.13317 9.91127 8.13317Z" fill="white"/>
</svg>
