<svg width="20" height="20" viewBox="0 0 20 20" fill="none" xmlns="http://www.w3.org/2000/svg">
<path d="M16.875 2.5V15C16.875 15.1658 16.8092 15.3247 16.6919 15.4419C16.5747 15.5592 16.4158 15.625 16.25 15.625H5.625C5.29348 15.625 4.97554 15.7567 4.74112 15.9911C4.5067 16.2255 4.375 16.5435 4.375 16.875H15C15.1658 16.875 15.3247 16.9408 15.4419 17.0581C15.5592 17.1753 15.625 17.3342 15.625 17.5C15.625 17.6658 15.5592 17.8247 15.4419 17.9419C15.3247 18.0592 15.1658 18.125 15 18.125H3.75C3.58424 18.125 3.42527 18.0592 3.30806 17.9419C3.19085 17.8247 3.125 17.6658 3.125 17.5V4.375C3.125 3.71196 3.38839 3.07607 3.85723 2.60723C4.32607 2.13839 4.96196 1.875 5.625 1.875H16.25C16.4158 1.875 16.5747 1.94085 16.6919 2.05806C16.8092 2.17527 16.875 2.33424 16.875 2.5Z" fill="#4C8282"/>
<path d="M8.07839 5.45455V12H6.69451V6.76811H6.65616L5.15723 7.70774V6.48047L6.77761 5.45455H8.07839ZM12.2005 12.1438C11.6507 12.1417 11.1777 12.0064 10.7814 11.7379C10.3873 11.4695 10.0836 11.0806 9.87056 10.5714C9.65962 10.0621 9.55522 9.44957 9.55735 8.73366C9.55735 8.01989 9.66282 7.41158 9.87376 6.90874C10.0868 6.40589 10.3904 6.02344 10.7846 5.76136C11.1809 5.49716 11.6529 5.36506 12.2005 5.36506C12.748 5.36506 13.2189 5.49716 13.6131 5.76136C14.0094 6.02557 14.3141 6.40909 14.5272 6.91193C14.7402 7.41264 14.8457 8.01989 14.8436 8.73366C14.8436 9.4517 14.737 10.0653 14.524 10.5746C14.313 11.0838 14.0105 11.4727 13.6163 11.7411C13.2221 12.0096 12.7502 12.1438 12.2005 12.1438ZM12.2005 10.9964C12.5755 10.9964 12.8748 10.8079 13.0985 10.4308C13.3223 10.0536 13.4331 9.48793 13.4309 8.73366C13.4309 8.23722 13.3798 7.82386 13.2775 7.49361C13.1774 7.16335 13.0346 6.91513 12.8493 6.74893C12.666 6.58274 12.4498 6.49964 12.2005 6.49964C11.8276 6.49964 11.5293 6.68608 11.3056 7.05895C11.0819 7.43182 10.9689 7.99006 10.9668 8.73366C10.9668 9.23651 11.0169 9.65625 11.117 9.9929C11.2193 10.3274 11.3631 10.5788 11.5485 10.7472C11.7338 10.9134 11.9512 10.9964 12.2005 10.9964Z" fill="white"/>
</svg>
