<svg width="20" height="20" viewBox="0 0 20 20" fill="none" xmlns="http://www.w3.org/2000/svg">
<path d="M16.875 2.5V15C16.875 15.1658 16.8092 15.3247 16.6919 15.4419C16.5747 15.5592 16.4158 15.625 16.25 15.625H5.625C5.29348 15.625 4.97554 15.7567 4.74112 15.9911C4.5067 16.2255 4.375 16.5435 4.375 16.875H15C15.1658 16.875 15.3247 16.9408 15.4419 17.0581C15.5592 17.1753 15.625 17.3342 15.625 17.5C15.625 17.6658 15.5592 17.8247 15.4419 17.9419C15.3247 18.0592 15.1658 18.125 15 18.125H3.75C3.58424 18.125 3.42527 18.0592 3.30806 17.9419C3.19085 17.8247 3.125 17.6658 3.125 17.5V4.375C3.125 3.71196 3.38839 3.07607 3.85723 2.60723C4.32607 2.13839 4.96196 1.875 5.625 1.875H16.25C16.4158 1.875 16.5747 1.94085 16.6919 2.05806C16.8092 2.17527 16.875 2.33424 16.875 2.5Z" fill="#4C8282"/>
<path d="M9.98597 12.0739C9.64933 12.0717 9.3244 12.0153 9.01119 11.9045C8.70011 11.7937 8.42099 11.6136 8.17383 11.3643C7.92667 11.1151 7.73065 10.7848 7.58576 10.3736C7.443 9.96236 7.37163 9.45739 7.37163 8.85866C7.37376 8.30895 7.43661 7.81783 7.56019 7.3853C7.6859 6.95064 7.86488 6.58203 8.09712 6.27947C8.3315 5.97692 8.61168 5.7468 8.93768 5.58913C9.26367 5.42933 9.62908 5.34943 10.0339 5.34943C10.4707 5.34943 10.8564 5.43466 11.1909 5.60511C11.5254 5.77344 11.7939 6.00249 11.9963 6.29226C12.2008 6.58203 12.3244 6.90696 12.367 7.26705H11.0023C10.949 7.03906 10.8372 6.86009 10.6667 6.73011C10.4963 6.60014 10.2853 6.53516 10.0339 6.53516C9.60778 6.53516 9.28391 6.72053 9.06232 7.09126C8.84286 7.462 8.731 7.96591 8.72674 8.60298H8.77148C8.8695 8.40909 9.0016 8.24396 9.16779 8.1076C9.33612 7.9691 9.52681 7.86364 9.73988 7.79119C9.95508 7.71662 10.182 7.67933 10.4206 7.67933C10.8084 7.67933 11.1536 7.77095 11.4561 7.95419C11.7587 8.1353 11.9973 8.38459 12.1721 8.70206C12.3468 9.01953 12.4341 9.38281 12.4341 9.7919C12.4341 10.2351 12.3308 10.6293 12.1241 10.9744C11.9196 11.3196 11.633 11.5902 11.2644 11.7862C10.8979 11.9801 10.4718 12.076 9.98597 12.0739ZM9.97958 10.9872C10.1926 10.9872 10.3833 10.9361 10.5517 10.8338C10.72 10.7315 10.8521 10.593 10.948 10.4183C11.0439 10.2436 11.0918 10.0476 11.0918 9.83026C11.0918 9.61293 11.0439 9.41797 10.948 9.24538C10.8542 9.0728 10.7243 8.93537 10.5581 8.8331C10.3919 8.73082 10.2022 8.67969 9.98917 8.67969C9.82937 8.67969 9.68129 8.70952 9.54492 8.76918C9.41069 8.82884 9.29244 8.91193 9.19016 9.01847C9.09002 9.125 9.01119 9.24858 8.95366 9.3892C8.89613 9.5277 8.86737 9.67578 8.86737 9.83345C8.86737 10.0444 8.91531 10.2372 9.01119 10.4119C9.1092 10.5866 9.2413 10.7262 9.40749 10.8306C9.57582 10.935 9.76651 10.9872 9.97958 10.9872Z" fill="white"/>
</svg>
