<svg width="20" height="20" viewBox="0 0 20 20" fill="none" xmlns="http://www.w3.org/2000/svg">
<path d="M16.875 2.5V15C16.875 15.1658 16.8092 15.3247 16.6919 15.4419C16.5747 15.5592 16.4158 15.625 16.25 15.625H5.625C5.29348 15.625 4.97554 15.7567 4.74112 15.9911C4.5067 16.2255 4.375 16.5435 4.375 16.875H15C15.1658 16.875 15.3247 16.9408 15.4419 17.0581C15.5592 17.1753 15.625 17.3342 15.625 17.5C15.625 17.6658 15.5592 17.8247 15.4419 17.9419C15.3247 18.0592 15.1658 18.125 15 18.125H3.75C3.58424 18.125 3.42527 18.0592 3.30806 17.9419C3.19085 17.8247 3.125 17.6658 3.125 17.5V4.375C3.125 3.71196 3.38839 3.07607 3.85723 2.60723C4.32607 2.13839 4.96196 1.875 5.625 1.875H16.25C16.4158 1.875 16.5747 1.94085 16.6919 2.05806C16.8092 2.17527 16.875 2.33424 16.875 2.5Z" fill="#4C8282"/>
<path d="M9.84215 5.34943C10.1788 5.34943 10.5027 5.40589 10.8137 5.51882C11.127 5.63175 11.4061 5.81179 11.6511 6.05895C11.8983 6.30611 12.0932 6.63423 12.236 7.04332C12.3809 7.45028 12.4544 7.94993 12.4565 8.54226C12.4565 9.09837 12.3936 9.59482 12.2679 10.0316C12.1444 10.4663 11.9664 10.8359 11.7342 11.1406C11.502 11.4453 11.2218 11.6776 10.8936 11.8374C10.5655 11.995 10.199 12.0739 9.79421 12.0739C9.35742 12.0739 8.97177 11.9897 8.63725 11.8214C8.30273 11.6509 8.0332 11.4197 7.82866 11.1278C7.62624 10.8338 7.50373 10.5036 7.46112 10.1371H8.82582C8.87908 10.3757 8.99094 10.5611 9.1614 10.6932C9.33185 10.8232 9.54279 10.8881 9.79421 10.8881C10.2203 10.8881 10.5442 10.7028 10.7658 10.332C10.9874 9.95916 11.0993 9.44886 11.1014 8.80114H11.0566C10.9586 8.9929 10.8265 9.15803 10.6603 9.29652C10.4941 9.43288 10.3034 9.53835 10.0882 9.61293C9.87518 9.6875 9.64826 9.72479 9.40749 9.72479C9.02184 9.72479 8.67773 9.63423 8.37518 9.45312C8.07262 9.27202 7.83398 9.02273 7.65927 8.70526C7.48455 8.38778 7.39719 8.02557 7.39719 7.61861C7.39506 7.17969 7.49627 6.78871 7.70082 6.44567C7.90536 6.10263 8.19087 5.83416 8.55735 5.64027C8.92596 5.44425 9.35423 5.3473 9.84215 5.34943ZM9.85174 6.43608C9.63654 6.43608 9.44478 6.48722 9.27646 6.58949C9.11026 6.69176 8.97816 6.82919 8.88015 7.00178C8.78427 7.17436 8.73739 7.36719 8.73952 7.58026C8.73952 7.79545 8.7864 7.98935 8.88015 8.16193C8.97603 8.33239 9.106 8.46875 9.27006 8.57102C9.43626 8.67116 9.62589 8.72124 9.83896 8.72124C9.99876 8.72124 10.1468 8.69141 10.2832 8.63175C10.4196 8.57209 10.5378 8.49006 10.638 8.38565C10.7402 8.27912 10.8201 8.1566 10.8777 8.01811C10.9352 7.87962 10.964 7.7326 10.964 7.57706C10.9618 7.37038 10.9128 7.18075 10.8169 7.00817C10.7211 6.83558 10.589 6.69709 10.4206 6.59268C10.2523 6.48828 10.0627 6.43608 9.85174 6.43608Z" fill="white"/>
</svg>
