<svg width="20" height="20" viewBox="0 0 20 20" fill="none" xmlns="http://www.w3.org/2000/svg">
<path d="M16.875 2.5V15C16.875 15.1658 16.8092 15.3247 16.6919 15.4419C16.5747 15.5592 16.4158 15.625 16.25 15.625H5.625C5.29348 15.625 4.97554 15.7567 4.74112 15.9911C4.5067 16.2255 4.375 16.5435 4.375 16.875H15C15.1658 16.875 15.3247 16.9408 15.4419 17.0581C15.5592 17.1753 15.625 17.3342 15.625 17.5C15.625 17.6658 15.5592 17.8247 15.4419 17.9419C15.3247 18.0592 15.1658 18.125 15 18.125H3.75C3.58424 18.125 3.42527 18.0592 3.30806 17.9419C3.19085 17.8247 3.125 17.6658 3.125 17.5V4.375C3.125 3.71196 3.38839 3.07607 3.85723 2.60723C4.32607 2.13839 4.96196 1.875 5.625 1.875H16.25C16.4158 1.875 16.5747 1.94085 16.6919 2.05806C16.8092 2.17527 16.875 2.33424 16.875 2.5Z" fill="#4C8282"/>
<path d="M9.89768 12.0739C9.42041 12.0739 8.99534 11.9918 8.62247 11.8278C8.25173 11.6616 7.95876 11.4336 7.74356 11.1438C7.5305 10.8519 7.42077 10.5153 7.41437 10.1339H8.80784C8.81636 10.2937 8.86856 10.4343 8.96444 10.5558C9.06246 10.6751 9.19243 10.7678 9.35436 10.8338C9.51629 10.8999 9.69846 10.9329 9.90088 10.9329C10.1118 10.9329 10.2983 10.8956 10.4602 10.821C10.6221 10.7464 10.7489 10.6431 10.8405 10.511C10.9321 10.3789 10.9779 10.2266 10.9779 10.054C10.9779 9.87926 10.9289 9.72479 10.8309 9.59055C10.735 9.45419 10.5965 9.34766 10.4154 9.27095C10.2365 9.19425 10.0234 9.15589 9.77623 9.15589H9.16579V8.13956H9.77623C9.98504 8.13956 10.1693 8.10334 10.3291 8.03089C10.4911 7.95845 10.6168 7.85831 10.7063 7.73047C10.7958 7.6005 10.8405 7.44922 10.8405 7.27663C10.8405 7.11257 10.8011 6.96875 10.7223 6.84517C10.6456 6.71946 10.5369 6.62145 10.3963 6.55114C10.2578 6.48082 10.0958 6.44567 9.91047 6.44567C9.72297 6.44567 9.55145 6.47976 9.39591 6.54794C9.24037 6.61399 9.11572 6.70881 9.02197 6.83239C8.92822 6.95597 8.87815 7.10085 8.87176 7.26705H7.54541C7.5518 6.88991 7.6594 6.55753 7.86821 6.26989C8.07702 5.98224 8.35827 5.75746 8.71196 5.59553C9.06778 5.43146 9.46942 5.34943 9.91686 5.34943C10.3686 5.34943 10.7638 5.43146 11.1026 5.59553C11.4414 5.75959 11.7045 5.98118 11.892 6.2603C12.0816 6.53729 12.1754 6.84837 12.1733 7.19354C12.1754 7.56001 12.0614 7.86577 11.8313 8.1108C11.6033 8.35582 11.3061 8.51136 10.9396 8.57741V8.62855C11.4211 8.69034 11.7876 8.8576 12.039 9.13033C12.2926 9.40092 12.4183 9.7397 12.4161 10.1467C12.4183 10.5195 12.3107 10.8509 12.0934 11.1406C11.8782 11.4304 11.5809 11.6584 11.2017 11.8246C10.8224 11.9908 10.3877 12.0739 9.89768 12.0739Z" fill="white"/>
</svg>
