<svg width="20" height="20" viewBox="0 0 20 20" fill="none" xmlns="http://www.w3.org/2000/svg">
<path d="M16.875 2.5V15C16.875 15.1658 16.8092 15.3247 16.6919 15.4419C16.5747 15.5592 16.4158 15.625 16.25 15.625H5.625C5.29348 15.625 4.97554 15.7567 4.74112 15.9911C4.5067 16.2255 4.375 16.5435 4.375 16.875H15C15.1658 16.875 15.3247 16.9408 15.4419 17.0581C15.5592 17.1753 15.625 17.3342 15.625 17.5C15.625 17.6658 15.5592 17.8247 15.4419 17.9419C15.3247 18.0592 15.1658 18.125 15 18.125H3.75C3.58424 18.125 3.42527 18.0592 3.30806 17.9419C3.19085 17.8247 3.125 17.6658 3.125 17.5V4.375C3.125 3.71196 3.38839 3.07607 3.85723 2.60723C4.32607 2.13839 4.96196 1.875 5.625 1.875H16.25C16.4158 1.875 16.5747 1.94085 16.6919 2.05806C16.8092 2.17527 16.875 2.33424 16.875 2.5Z" fill="#4C8282"/>
<path d="M7.61013 11.9844V10.9872L9.94003 8.8299C10.1382 8.63814 10.3044 8.46555 10.4386 8.31214C10.575 8.15874 10.6783 8.00852 10.7486 7.86151C10.8189 7.71236 10.8541 7.55149 10.8541 7.37891C10.8541 7.18714 10.8104 7.02202 10.7231 6.88352C10.6357 6.7429 10.5164 6.6353 10.3651 6.56072C10.2138 6.48402 10.0423 6.44567 9.85054 6.44567C9.65026 6.44567 9.47554 6.48615 9.32639 6.56712C9.17725 6.64808 9.06219 6.7642 8.98122 6.91548C8.90026 7.06676 8.85977 7.2468 8.85977 7.45561H7.54621C7.54621 7.02734 7.64316 6.65554 7.83705 6.3402C8.03094 6.02486 8.3026 5.78089 8.65203 5.60831C9.00146 5.43572 9.40416 5.34943 9.86013 5.34943C10.3289 5.34943 10.7369 5.43253 11.0842 5.59872C11.4336 5.76278 11.7053 5.99077 11.8992 6.28267C12.0931 6.57457 12.19 6.90909 12.19 7.28622C12.19 7.53338 12.141 7.77734 12.043 8.01811C11.9471 8.25888 11.7756 8.52628 11.5285 8.82031C11.2813 9.11222 10.9329 9.46271 10.4834 9.8718L9.52774 10.8082V10.853H12.2763V11.9844H7.61013Z" fill="white"/>
</svg>
