<svg width="20" height="20" viewBox="0 0 20 20" fill="none" xmlns="http://www.w3.org/2000/svg">
<path d="M18.075 9.07735L6.81877 2.1922C6.65272 2.09035 6.46249 2.0347 6.26773 2.03099C6.07297 2.02728 5.88076 2.07565 5.71096 2.1711C5.54206 2.26386 5.40136 2.40051 5.30372 2.56664C5.20608 2.73276 5.15514 2.92217 5.15627 3.11485V16.8852C5.15514 17.0779 5.20608 17.2673 5.30372 17.4334C5.40136 17.5995 5.54206 17.7362 5.71096 17.8289C5.88076 17.9244 6.07297 17.9727 6.26773 17.969C6.46249 17.9653 6.65272 17.9097 6.81877 17.8078L18.075 10.9227C18.2335 10.8264 18.3644 10.6909 18.4553 10.5293C18.5462 10.3677 18.594 10.1854 18.594 10C18.594 9.8146 18.5462 9.63232 18.4553 9.47072C18.3644 9.30912 18.2335 9.17365 18.075 9.07735ZM17.586 10.1227L6.32814 17.0078C6.30384 17.0224 6.27603 17.0301 6.24767 17.0301C6.21932 17.0301 6.19151 17.0224 6.16721 17.0078C6.14366 16.9963 6.12383 16.9784 6.11001 16.9562C6.09619 16.9339 6.08893 16.9082 6.08908 16.882V3.11485C6.08893 3.08866 6.09619 3.06295 6.11001 3.0407C6.12383 3.01845 6.14366 3.00055 6.16721 2.98907C6.19248 2.97498 6.22109 2.96796 6.25002 2.96876C6.27775 2.96975 6.30471 2.97811 6.32814 2.99298L17.586 9.87735C17.6073 9.8899 17.6251 9.90782 17.6374 9.92933C17.6497 9.95085 17.6562 9.97521 17.6562 10C17.6562 10.0248 17.6497 10.0492 17.6374 10.0707C17.6251 10.0922 17.6073 10.1101 17.586 10.1227Z" fill="#1B3F57" fill-opacity="0.8"/>
</svg>
