<svg width="20" height="20" viewBox="0 0 20 20" fill="none" xmlns="http://www.w3.org/2000/svg">
<path d="M14.0813 10.3312L7.83128 16.5812C7.74242 16.664 7.62489 16.7091 7.50345 16.707C7.38201 16.7048 7.26615 16.6556 7.18026 16.5698C7.09438 16.4839 7.04518 16.368 7.04304 16.2466C7.0409 16.1251 7.08598 16.0076 7.16878 15.9187L13.0867 10L7.16878 4.08125C7.08598 3.99239 7.0409 3.87486 7.04304 3.75342C7.04518 3.63198 7.09438 3.51612 7.18026 3.43023C7.26615 3.34435 7.38201 3.29515 7.50345 3.29301C7.62489 3.29087 7.74242 3.33595 7.83128 3.41875L14.0813 9.66875C14.1691 9.75664 14.2184 9.87578 14.2184 10C14.2184 10.1242 14.1691 10.2434 14.0813 10.3312Z" fill="#1B3F57" fill-opacity="0.8"/>
</svg>
