<svg width="16" height="16" viewBox="0 0 16 16" fill="none" xmlns="http://www.w3.org/2000/svg">
<path d="M9.71871 6.74999C9.71871 6.87431 9.66933 6.99354 9.58142 7.08145C9.49351 7.16936 9.37428 7.21874 9.24996 7.21874H4.24996C4.12564 7.21874 4.00641 7.16936 3.91851 7.08145C3.8306 6.99354 3.78121 6.87431 3.78121 6.74999C3.78121 6.62567 3.8306 6.50645 3.91851 6.41854C4.00641 6.33063 4.12564 6.28124 4.24996 6.28124H9.24996C9.37428 6.28124 9.49351 6.33063 9.58142 6.41854C9.66933 6.50645 9.71871 6.62567 9.71871 6.74999ZM15.8312 15.8312C15.7433 15.919 15.6242 15.9683 15.5 15.9683C15.3757 15.9683 15.2566 15.919 15.1687 15.8312L11.1547 11.8172C9.83827 12.9618 8.12889 13.5507 6.38682 13.4596C4.64474 13.3685 3.00609 12.6046 1.81628 11.3289C0.626472 10.0531 -0.0215434 8.3653 0.00883424 6.62111C0.0392119 4.87692 0.74561 3.21267 1.97912 1.97915C3.21264 0.74564 4.87689 0.0392424 6.62108 0.00886476C8.36526 -0.0215128 10.0531 0.626503 11.3288 1.81631C12.6046 3.00612 13.3685 4.64477 13.4596 6.38685C13.5507 8.12892 12.9618 9.8383 11.8172 11.1547L15.8312 15.1687C15.919 15.2566 15.9683 15.3758 15.9683 15.5C15.9683 15.6242 15.919 15.7434 15.8312 15.8312ZM6.74996 12.5312C7.89339 12.5312 9.01113 12.1922 9.96185 11.5569C10.9126 10.9217 11.6536 10.0188 12.0911 8.96238C12.5287 7.906 12.6432 6.74358 12.4201 5.62213C12.1971 4.50068 11.6464 3.47055 10.8379 2.66203C10.0294 1.85351 8.99928 1.3029 7.87783 1.07983C6.75638 0.856758 5.59396 0.971246 4.53757 1.40882C3.48119 1.84638 2.57828 2.58738 1.94303 3.5381C1.30778 4.48882 0.968713 5.60657 0.968713 6.74999C0.970574 8.28271 1.58027 9.75211 2.66406 10.8359C3.74785 11.9197 5.21725 12.5294 6.74996 12.5312Z" fill="#1B3F57" fill-opacity="0.8"/>
</svg>
